<?xml version="1.0" encoding="utf-8"?>
<!-- Generator: Adobe Illustrator 21.0.0, SVG Export Plug-In . SVG Version: 6.00 Build 0)  -->
<svg version="1.1" id="图层_1" xmlns="http://www.w3.org/2000/svg" xmlns:xlink="http://www.w3.org/1999/xlink" x="0px" y="0px"
	 viewBox="0 0 64 64" style="enable-background:new 0 0 64 64;" xml:space="preserve">
<style type="text/css">
	.st0{fill:#B90CFF;}
</style>
<g>
	<g>
		<g>
			<path class="st0" d="M51.1,25.2c0,0.2,0,0.4,0,0.6c0,0.1,0,0.1,0,0.2c-0.3,4.7-2.6,18.9-19,33.3c0,0-0.1,0.1-0.2,0.2l-0.3,0.3
				l-0.3-0.3c-0.1-0.1-0.1-0.1-0.2-0.2C13.5,43.8,12,28.6,11.9,25.1c0-0.4,0-0.6,0-0.7c0,0,0,0,0,0c0-10.8,8.8-19.5,19.6-19.5
				c10.8,0,19.5,8.8,19.6,19.5c0,0,0,0,0,0C51.1,24.5,51.1,24.8,51.1,25.2z"/>
		</g>
	</g>
</g>
</svg>
