<?xml version="1.0" encoding="utf-8"?>
<!-- Generator: Adobe Illustrator 21.0.0, SVG Export Plug-In . SVG Version: 6.00 Build 0)  -->
<svg version="1.1" id="图层_1" xmlns="http://www.w3.org/2000/svg" xmlns:xlink="http://www.w3.org/1999/xlink" x="0px" y="0px"
	 viewBox="0 0 128 128" style="enable-background:new 0 0 128 128;" xml:space="preserve">
<style type="text/css">
	.st0{opacity:0.5;}
	.st1{fill:#00FF00;}
</style>
<g class="st0">
	<path class="st1" d="M64,127.5C29,127.5,0.5,99,0.5,64C0.5,29,29,0.5,64,0.5c35,0,63.5,28.5,63.5,63.5C127.5,99,99,127.5,64,127.5z
		"/>
	<path class="st1" d="M64,1c34.7,0,63,28.3,63,63s-28.3,63-63,63S1,98.7,1,64S29.3,1,64,1 M64,0C28.7,0,0,28.7,0,64s28.7,64,64,64
		s64-28.7,64-64S99.3,0,64,0L64,0z"/>
</g>
<g>
	<path class="st1" d="M64,3c33.6,0,61,27.4,61,61s-27.4,61-61,61S3,97.6,3,64S30.4,3,64,3 M64,0C28.7,0,0,28.7,0,64s28.7,64,64,64
		s64-28.7,64-64S99.3,0,64,0L64,0z"/>
</g>
</svg>
