{
    "asset" : {
        "generator" : "Khronos glTF Blender I/O v1.0.5",
        "version" : "2.0"
    },
    "scene" : 0,
    "scenes" : [
        {
            "name" : "Scene",
            "nodes" : [
                0
            ]
        }
    ],
    "nodes" : [
        {
            "mesh" : 0,
            "name" : "DF-11A",
            "rotation" : [
                -0.539863646030426,
                0.45603451132774353,
                0.5434807538986206,
                0.45299938321113586
            ],
            "scale" : [
                0.6083739399909973,
                0.6083739399909973,
                0.6083739399909973
            ],
            "translation" : [
                -0.8453653454780579,
                5.115200996398926,
                10.18027400970459
            ]
        }
    ],
    "materials" : [
        {
            "doubleSided" : true,
            "name" : "Material.001",
            "pbrMetallicRoughness" : {
                "baseColorFactor" : [
                    1,
                    1,
                    1,
                    1
                ],
                "metallicFactor" : 0,
                "roughnessFactor" : 0.5
            }
        }
    ],
    "meshes" : [
        {
            "name" : "Mesh",
            "primitives" : [
                {
                    "attributes" : {
                        "POSITION" : 0,
                        "NORMAL" : 1,
                        "TEXCOORD_0" : 2
                    },
                    "indices" : 3,
                    "material" : 0
                }
            ]
        }
    ],
    "accessors" : [
        {
            "bufferView" : 0,
            "componentType" : 5126,
            "count" : 8978,
            "max" : [
                16.648387908935547,
                2.140901803970337,
                -6.5271100997924805
            ],
            "min" : [
                -16.480960845947266,
                -1.7966315746307373,
                -10.464643478393555
            ],
            "type" : "VEC3"
        },
        {
            "bufferView" : 1,
            "componentType" : 5126,
            "count" : 8978,
            "type" : "VEC3"
        },
        {
            "bufferView" : 2,
            "componentType" : 5126,
            "count" : 8978,
            "type" : "VEC2"
        },
        {
            "bufferView" : 3,
            "componentType" : 5123,
            "count" : 32808,
            "type" : "SCALAR"
        }
    ],
    "bufferViews" : [
        {
            "buffer" : 0,
            "byteLength" : 107736,
            "byteOffset" : 0
        },
        {
            "buffer" : 0,
            "byteLength" : 107736,
            "byteOffset" : 107736
        },
        {
            "buffer" : 0,
            "byteLength" : 71824,
            "byteOffset" : 215472
        },
        {
            "buffer" : 0,
            "byteLength" : 65616,
            "byteOffset" : 287296
        }
    ],
    "buffers" : [
        {
            "byteLength" : 352912,
            "uri" : "data:application/octet-stream;base64,"
        }
    ]
}
